<svg width="78" height="78" viewBox="0 0 78 78" fill="none" xmlns="http://www.w3.org/2000/svg">
<path d="M39 29.25C36.4141 29.25 33.9342 30.2772 32.1057 32.1057C30.2772 33.9342 29.25 36.4141 29.25 39C29.25 41.5859 30.2772 44.0658 32.1057 45.8943C33.9342 47.7228 36.4141 48.75 39 48.75C41.5859 48.75 44.0658 47.7228 45.8943 45.8943C47.7228 44.0658 48.75 41.5859 48.75 39C48.75 36.4141 47.7228 33.9342 45.8943 32.1057C44.0658 30.2772 41.5859 29.25 39 29.25ZM39 55.25C34.6902 55.25 30.557 53.538 27.5095 50.4905C24.462 47.443 22.75 43.3098 22.75 39C22.75 34.6902 24.462 30.557 27.5095 27.5095C30.557 24.462 34.6902 22.75 39 22.75C43.3098 22.75 47.443 24.462 50.4905 27.5095C53.538 30.557 55.25 34.6902 55.25 39C55.25 43.3098 53.538 47.443 50.4905 50.4905C47.443 53.538 43.3098 55.25 39 55.25ZM39 14.625C22.75 14.625 8.8725 24.7325 3.25 39C8.8725 53.2675 22.75 63.375 39 63.375C55.25 63.375 69.1275 53.2675 74.75 39C69.1275 24.7325 55.25 14.625 39 14.625Z" fill="#424242"/>
</svg>
