<svg width="78" height="78" viewBox="0 0 78 78" fill="none" xmlns="http://www.w3.org/2000/svg">
<path d="M38.4475 29.25L48.75 39.52V39C48.75 36.4141 47.7228 33.9342 45.8943 32.1057C44.0658 30.2772 41.5859 29.25 39 29.25H38.4475ZM24.4725 31.85L29.51 36.8875C29.3475 37.57 29.25 38.2525 29.25 39C29.25 41.5859 30.2772 44.0658 32.1057 45.8943C33.9342 47.7228 36.4141 48.75 39 48.75C39.715 48.75 40.43 48.6525 41.1125 48.49L46.15 53.5275C43.9725 54.6 41.5675 55.25 39 55.25C34.6902 55.25 30.557 53.538 27.5095 50.4905C24.462 47.443 22.75 43.3098 22.75 39C22.75 36.4325 23.4 34.0275 24.4725 31.85ZM6.5 13.8775L13.91 21.2875L15.3725 22.75C10.01 26.975 5.785 32.5 3.25 39C8.8725 53.2675 22.75 63.375 39 63.375C44.0375 63.375 48.8475 62.4 53.235 60.645L54.6325 62.01L64.1225 71.5L68.25 67.3725L10.6275 9.75M39 22.75C43.3098 22.75 47.443 24.462 50.4905 27.5095C53.538 30.557 55.25 34.6902 55.25 39C55.25 41.08 54.8275 43.095 54.08 44.915L63.6025 54.4375C68.4775 50.375 72.3775 45.045 74.75 39C69.1275 24.7325 55.25 14.625 39 14.625C34.45 14.625 30.095 15.4375 26 16.9L33.0525 23.8875C34.905 23.1725 36.8875 22.75 39 22.75Z" fill="#424242"/>
</svg>
