<svg width="30" height="29" viewBox="0 0 30 29" fill="none" xmlns="http://www.w3.org/2000/svg">
<path d="M20.3333 11H9.66663C5.24863 11 1.66663 14.582 1.66663 19C1.66663 23.418 5.24863 27 9.66663 27H20.3333C24.7513 27 28.3333 23.418 28.3333 19C28.3333 14.582 24.7513 11 20.3333 11Z" stroke="#4CA0FF" stroke-width="2.66667" stroke-linejoin="round"/>
<path d="M9.66667 16.3334V21.6667M7 19.0001H12.3333M15 9.66675V5.47608H20.3333V1.66675" stroke="#4CA0FF" stroke-width="2.66667" stroke-linecap="round" stroke-linejoin="round"/>
<path d="M20.3333 21.6666C21.0405 21.6666 21.7188 21.3856 22.2189 20.8855C22.719 20.3854 23 19.7072 23 18.9999C23 18.2927 22.719 17.6144 22.2189 17.1143C21.7188 16.6142 21.0405 16.3333 20.3333 16.3333C19.626 16.3333 18.9478 16.6142 18.4477 17.1143C17.9476 17.6144 17.6666 18.2927 17.6666 18.9999C17.6666 19.7072 17.9476 20.3854 18.4477 20.8855C18.9478 21.3856 19.626 21.6666 20.3333 21.6666Z" stroke="#4CA0FF" stroke-width="2.66667" stroke-linejoin="round"/>
</svg>
