<svg width="84" height="80" viewBox="0 0 84 80" fill="none" xmlns="http://www.w3.org/2000/svg">
<g id="Group">
<path id="Vector" d="M56.9999 30.75H26.9999C14.5743 30.75 4.49988 40.8244 4.49988 53.25C4.49988 65.6756 14.5743 75.75 26.9999 75.75H56.9999C69.4255 75.75 79.4999 65.6756 79.4999 53.25C79.4999 40.8244 69.4255 30.75 56.9999 30.75Z" stroke="white" stroke-width="7.5" stroke-linejoin="round"/>
<path id="Vector_2" d="M27 45.7502V60.7502M19.5 53.2502H34.5M42 27.0002V15.214H57V4.50024" stroke="white" stroke-width="7.5" stroke-linecap="round" stroke-linejoin="round"/>
<path id="Vector_3" d="M56.9999 60.7498C58.989 60.7498 60.8967 59.9596 62.3032 58.5531C63.7097 57.1465 64.4999 55.2389 64.4999 53.2498C64.4999 51.2606 63.7097 49.353 62.3032 47.9465C60.8967 46.5399 58.989 45.7498 56.9999 45.7498C55.0108 45.7498 53.1031 46.5399 51.6966 47.9465C50.2901 49.353 49.4999 51.2606 49.4999 53.2498C49.4999 55.2389 50.2901 57.1465 51.6966 58.5531C53.1031 59.9596 55.0108 60.7498 56.9999 60.7498Z" stroke="white" stroke-width="7.5" stroke-linejoin="round"/>
</g>
</svg>
