<svg width="237" height="237" viewBox="0 0 237 237" fill="none" xmlns="http://www.w3.org/2000/svg">
<circle cx="118.277" cy="118.723" r="118.277" fill="#FFEB74"/>
<ellipse cx="42.3333" cy="148.161" rx="21.3562" ry="15.6324" fill="#FFCF55" fill-opacity="0.5"/>
<ellipse cx="193.773" cy="148.539" rx="21.3562" ry="15.6324" fill="#FFCF55" fill-opacity="0.5"/>
<ellipse cx="162.668" cy="99.2435" rx="26.4068" ry="36.3113" fill="white"/>
<ellipse cx="160.189" cy="100.949" rx="20.4559" ry="29.4877" fill="#2E2E2E"/>
<ellipse cx="6.16871" cy="8.41182" rx="6.16871" ry="8.41182" transform="matrix(0.985313 0.170759 -0.176583 0.984286 146.785 75.6738)" fill="white"/>
<ellipse cx="73.5071" cy="99.2435" rx="26.4068" ry="36.3113" fill="white"/>
<ellipse cx="75.9867" cy="100.949" rx="20.4559" ry="29.4877" fill="#2E2E2E"/>
<ellipse cx="6.16871" cy="8.41182" rx="6.16871" ry="8.41182" transform="matrix(0.985313 0.170759 -0.176583 0.984286 62.0591 75.6738)" fill="white"/>
<path d="M151.215 148.971C151.215 162.314 136.638 174.514 118.656 174.514C100.674 174.514 86.0962 161.845 86.0962 148.971C86.0962 140.04 95.0468 133.349 107.767 136.54C114.846 138.317 122.433 138.291 129.488 136.418C141.517 133.224 149.924 139.221 151.215 148.971Z" fill="#C17E7E"/>
<path d="M118.532 151.441C130.04 151.441 139.892 156.956 143.971 164.776C138.001 170.596 128.909 174.514 118.721 174.514C108.432 174.514 99.2575 170.364 93.2908 164.403C97.4851 156.781 107.207 151.441 118.532 151.441Z" fill="#E6A5A5"/>
</svg>
