<svg width="28" height="29" viewBox="0 0 28 29" fill="none" xmlns="http://www.w3.org/2000/svg">
<path d="M18 27V16.3333C18 15.9797 17.8595 15.6406 17.6095 15.3905C17.3594 15.1405 17.0203 15 16.6667 15H11.3333C10.9797 15 10.6406 15.1405 10.3905 15.3905C10.1405 15.6406 10 15.9797 10 16.3333V27" stroke="#4CA0FF" stroke-width="2.66667" stroke-linecap="round" stroke-linejoin="round"/>
<path d="M2 12.3332C1.99991 11.9453 2.08445 11.562 2.24772 11.2102C2.41099 10.8583 2.64906 10.5463 2.94533 10.2959L12.2787 2.29721C12.76 1.89042 13.3698 1.66724 14 1.66724C14.6302 1.66724 15.24 1.89042 15.7213 2.29721L25.0547 10.2959C25.3509 10.5463 25.589 10.8583 25.7523 11.2102C25.9156 11.562 26.0001 11.9453 26 12.3332V24.3332C26 25.0405 25.719 25.7187 25.219 26.2188C24.7189 26.7189 24.0406 26.9999 23.3333 26.9999H4.66667C3.95942 26.9999 3.28115 26.7189 2.78105 26.2188C2.28095 25.7187 2 25.0405 2 24.3332V12.3332Z" stroke="#4CA0FF" stroke-width="2.66667" stroke-linecap="round" stroke-linejoin="round"/>
</svg>
