<svg width="30" height="28" viewBox="0 0 30 28" fill="none" xmlns="http://www.w3.org/2000/svg">
<path d="M28.3334 14.0001V24.6667C28.3334 25.374 28.0524 26.0523 27.5523 26.5524C27.0522 27.0525 26.374 27.3334 25.6667 27.3334H4.33337C3.62613 27.3334 2.94785 27.0525 2.44776 26.5524C1.94766 26.0523 1.66671 25.374 1.66671 24.6667V14.0001C1.31309 14.0001 0.973947 13.8596 0.723898 13.6096C0.47385 13.3595 0.333374 13.0204 0.333374 12.6667V8.66675C0.333374 7.9595 0.614326 7.28123 1.11442 6.78113C1.61452 6.28103 2.2928 6.00008 3.00004 6.00008H7.22671C7.07602 5.57172 6.99937 5.12084 7.00004 4.66675C7.00004 3.60588 7.42147 2.58847 8.17161 1.83832C8.92176 1.08818 9.93917 0.666748 11 0.666748C12.3334 0.666748 13.5067 1.33341 14.24 2.32008V2.30675L15 3.33341L15.76 2.30675V2.32008C16.4934 1.33341 17.6667 0.666748 19 0.666748C20.0609 0.666748 21.0783 1.08818 21.8285 1.83832C22.5786 2.58847 23 3.60588 23 4.66675C23.0007 5.12084 22.9241 5.57172 22.7734 6.00008H27C27.7073 6.00008 28.3856 6.28103 28.8857 6.78113C29.3858 7.28123 29.6667 7.9595 29.6667 8.66675V12.6667C29.6667 13.0204 29.5262 13.3595 29.2762 13.6096C29.0261 13.8596 28.687 14.0001 28.3334 14.0001ZM4.33337 24.6667H13.6667V14.0001H4.33337V24.6667ZM25.6667 24.6667V14.0001H16.3334V24.6667H25.6667ZM11 3.33341C10.6464 3.33341 10.3073 3.47389 10.0572 3.72394C9.80718 3.97399 9.66671 4.31313 9.66671 4.66675C9.66671 5.02037 9.80718 5.35951 10.0572 5.60956C10.3073 5.8596 10.6464 6.00008 11 6.00008C11.3537 6.00008 11.6928 5.8596 11.9429 5.60956C12.1929 5.35951 12.3334 5.02037 12.3334 4.66675C12.3334 4.31313 12.1929 3.97399 11.9429 3.72394C11.6928 3.47389 11.3537 3.33341 11 3.33341ZM19 3.33341C18.6464 3.33341 18.3073 3.47389 18.0572 3.72394C17.8072 3.97399 17.6667 4.31313 17.6667 4.66675C17.6667 5.02037 17.8072 5.35951 18.0572 5.60956C18.3073 5.8596 18.6464 6.00008 19 6.00008C19.3537 6.00008 19.6928 5.8596 19.9429 5.60956C20.1929 5.35951 20.3334 5.02037 20.3334 4.66675C20.3334 4.31313 20.1929 3.97399 19.9429 3.72394C19.6928 3.47389 19.3537 3.33341 19 3.33341ZM3.00004 8.66675V11.3334H13.6667V8.66675H3.00004ZM16.3334 8.66675V11.3334H27V8.66675H16.3334Z" fill="#4CA0FF"/>
</svg>
