<svg width="626" height="330" viewBox="0 0 626 330" fill="none" xmlns="http://www.w3.org/2000/svg">
<path d="M234.286 0C273.829 0.00014604 304.095 23.8677 315.187 57.2021C327.59 49.8206 342.262 45.5947 358.428 45.5947C378.442 45.5948 396.019 52.0724 409.808 62.9971C410.671 51.9461 419.875 43.212 431.162 43.1367L433.625 43.1309C488.444 43.2111 525.244 58.2911 548.052 78.2344C553.437 62.4736 568.373 51.1396 585.958 51.1396C607.731 51.1399 625.446 68.5147 625.994 90.1553L626.008 91.1895V204.057C626.008 226.175 608.076 244.106 585.958 244.106C566.107 244.106 549.631 229.663 546.461 210.712C538.251 218.076 529.023 224.062 519.458 228.813C490.081 243.406 456.087 247.486 432.825 247.042L430.607 246.984L430.052 246.96C418.542 246.295 409.571 236.665 409.743 225.117C409.742 225.011 409.739 224.905 409.739 224.799V209.812C401.289 217.192 392.031 222.054 383.069 225.063C384.359 237.372 386.698 248.903 389.371 258.967L389.606 259L390.236 259.093C403.39 261.2 412.536 273.427 410.753 286.707C410.034 292.059 407.647 296.777 404.188 300.409C405.853 310.617 400.929 321.18 391.258 326.226C379.379 332.423 364.768 327.987 358.309 316.336L358.007 315.775L357.587 314.962C355.808 311.476 353.762 306.991 351.623 301.661C328.447 295.755 302.094 286.162 278.564 271.893C246.931 252.71 216.733 222.529 211.518 178.816C205.688 177.039 199.681 174.531 193.79 171.151L198.086 205.074L198.202 206.101C200.377 227.639 184.985 247.101 163.385 249.837C141.784 252.572 122.026 237.561 118.764 216.16L118.621 215.137L112.962 170.449C108.961 171.876 104.799 172.637 100.636 172.751C100.605 172.752 100.574 172.753 100.543 172.754C100.324 172.759 100.105 172.762 99.8867 172.764C99.7614 172.765 99.6361 172.768 99.5108 172.768C99.3854 172.768 99.2601 172.765 99.1348 172.764C98.916 172.762 98.6973 172.759 98.4785 172.754C98.4476 172.753 98.4167 172.752 98.3858 172.751C94.1575 172.635 89.9307 171.852 85.8731 170.383L79.7744 217.69L79.6289 218.715C76.3178 240.108 56.5267 255.075 34.9326 252.291C13.3385 249.507 -2.00908 230.01 0.213891 208.477L0.332055 207.449L17.4112 74.9775C20.0376 54.6063 37.538 39.7967 57.5899 40.0508C57.7686 40.0522 57.9473 40.0548 58.126 40.0586C58.1491 40.0592 58.1722 40.0599 58.1953 40.0605C69.6132 40.3202 80.8418 45.434 88.5469 55.04L99.5108 68.709L110.476 55.04C118.187 45.4255 129.429 40.3109 140.857 40.0596C140.913 40.0581 140.969 40.0569 141.024 40.0557C141.152 40.0534 141.28 40.0518 141.408 40.0508C147.462 39.9704 153.28 41.2628 158.529 43.666C172.809 17.5933 200.336 0 234.286 0Z" fill="white"/>
<path d="M61.6133 91.1895L40.6644 202.096" stroke="#FF6D7C" stroke-width="43.1301" stroke-linecap="round"/>
<path d="M138.016 91.1895L158.965 202.096" stroke="#FF6D7C" stroke-width="43.1301" stroke-linecap="round"/>
<path d="M61.6133 91.1895L99.8143 128.774" stroke="#FF6D7C" stroke-width="43.1301" stroke-linecap="round"/>
<path d="M138.016 91.1895L99.8147 128.774" stroke="#FF6D7C" stroke-width="43.1301" stroke-linecap="round"/>
<path d="M451.633 202.824V89.957" stroke="#5D9BEC" stroke-width="43.1301" stroke-linecap="round"/>
<path d="M451.633 89.3454C513.84 88.8839 530.952 123.379 531.732 140.685C531.732 193.062 478.333 204.234 451.633 203.272" stroke="#5D9BEC" stroke-width="43.1301" stroke-linecap="round"/>
<path d="M586.569 202.711V89.8442" stroke="#AC92ED" stroke-width="43.1301" stroke-linecap="round"/>
<path d="M150.338 96.1187L165.742 182.379" stroke="white" stroke-width="8.00988" stroke-linecap="round"/>
<path d="M597.659 183.127V95.5022" stroke="white" stroke-width="8.00988" stroke-linecap="round"/>
<circle cx="169.131" cy="198.707" r="4.00494" fill="white"/>
<circle cx="597.351" cy="199.455" r="4.00494" fill="white"/>
<circle cx="512.94" cy="199.323" r="4.00494" fill="white"/>
<path d="M500.925 85.644C526.654 96.2874 537.585 114.603 541.282 127.542C545.463 142.174 544.055 170.672 525.263 188.232" stroke="white" stroke-width="8.00988" stroke-linecap="round"/>
<path d="M234.134 162.046C232.902 243.131 336.106 277.368 387.862 284.351" stroke="#545454" stroke-width="1.23229"/>
<path d="M358.287 207.641C358.534 252.003 373.383 291.436 380.776 305.608" stroke="#545454" stroke-width="1.23229"/>
<path d="M234.134 25.8779C268.163 25.8782 292.051 53.4637 292.051 87.4922C289.523 138.346 260.089 153.837 239.739 156.17L243.546 162.304C244.31 163.535 243.424 165.127 241.975 165.127H225.676C224.227 165.127 223.342 163.535 224.106 162.304L227.975 156.068C207.551 153.296 178.107 136.507 175.6 87.4922C175.6 53.4636 200.106 25.8779 234.134 25.8779Z" fill="#FFCE54"/>
<path d="M357.979 72.0889C392.008 72.0891 415.896 99.6746 415.896 133.703C413.368 184.557 383.934 200.048 363.584 202.381L367.392 208.515C368.155 209.746 367.269 211.338 365.82 211.338H349.521C348.072 211.338 347.187 209.746 347.951 208.515L351.82 202.279C331.396 199.507 301.952 182.718 299.445 133.703C299.445 99.6745 323.951 72.0889 357.979 72.0889Z" fill="#A0D468"/>
<path d="M372.286 272.963C372.85 271.561 374.767 271.392 375.568 272.673L379.921 279.635C380.722 280.916 379.731 282.565 378.223 282.459L371.265 281.968C371.209 281.964 371.155 281.955 371.101 281.946C371.085 281.998 371.07 282.051 371.049 282.103L368.444 288.573C367.88 289.975 365.964 290.144 365.162 288.863L360.809 281.901C360.008 280.62 361 278.971 362.507 279.078L369.465 279.569C369.52 279.573 369.574 279.582 369.628 279.59C369.643 279.538 369.66 279.486 369.681 279.434L372.286 272.963Z" fill="#FF6D7C"/>
<path d="M386.938 91.1895C418.053 112.138 405.73 164.819 392.791 174.677" stroke="white" stroke-width="8.00988" stroke-linecap="round"/>
<circle cx="382.933" cy="184.535" r="4.00494" fill="white"/>
<ellipse cx="256.647" cy="90.9715" rx="13.732" ry="18.8826" fill="white"/>
<ellipse cx="255.358" cy="91.8586" rx="10.6375" ry="15.3342" fill="#2E2E2E"/>
<ellipse cx="3.20785" cy="4.37431" rx="3.20785" ry="4.37431" transform="matrix(0.985313 0.170759 -0.176583 0.984286 248.387 78.7148)" fill="white"/>
<ellipse cx="210.281" cy="90.9715" rx="13.732" ry="18.8826" fill="white"/>
<ellipse cx="211.571" cy="91.8586" rx="10.6375" ry="15.3342" fill="#2E2E2E"/>
<ellipse cx="3.20785" cy="4.37431" rx="3.20785" ry="4.37431" transform="matrix(0.985313 0.170759 -0.176583 0.984286 204.328 78.7148)" fill="white"/>
</svg>
