<svg width="238" height="237" viewBox="0 0 238 237" fill="none" xmlns="http://www.w3.org/2000/svg">
<circle cx="119.073" cy="118.723" r="118.277" fill="#FF7D74"/>
<ellipse cx="43.1302" cy="148.192" rx="21.3562" ry="15.6324" fill="#E15B51" fill-opacity="0.6"/>
<ellipse cx="194.57" cy="148.57" rx="21.3562" ry="15.6324" fill="#E15B51" fill-opacity="0.6"/>
<path d="M100.601 102.493C98.6248 119.859 87.6978 133.144 74.514 133.144C59.93 133.144 48.1074 116.887 48.1074 96.8326C48.1074 89.0268 49.8988 81.7962 52.9469 75.8757L100.601 102.493Z" fill="white"/>
<path d="M95.207 99.4917C95.1125 100.258 95.0003 101.03 94.8674 101.807C92.3466 116.55 83.7898 127.388 75.7551 126.014C67.7204 124.64 63.2503 111.575 65.7711 96.8321C66.5111 92.5046 67.7716 88.5138 69.3858 85.0693L95.207 99.4917Z" fill="black"/>
<ellipse cx="4.73067" cy="6.45086" rx="4.73067" ry="6.45086" transform="matrix(0.996164 0.0875105 -0.0934005 0.995629 66.7581 97.6201)" fill="white"/>
<path d="M136.754 102.493C138.731 119.859 149.658 133.144 162.841 133.144C177.425 133.144 189.248 116.887 189.248 96.8326C189.248 89.0268 187.457 81.7962 184.409 75.8757L136.754 102.493Z" fill="white"/>
<path d="M142.148 99.4917C142.243 100.258 142.355 101.03 142.488 101.807C145.009 116.55 153.566 127.388 161.6 126.014C169.635 124.64 174.105 111.575 171.584 96.8321C170.844 92.5046 169.584 88.5138 167.97 85.0693L142.148 99.4917Z" fill="black"/>
<ellipse cx="4.73067" cy="6.45086" rx="4.73067" ry="6.45086" transform="matrix(-0.985313 0.170759 0.176583 0.984286 153.218 97.2993)" fill="white"/>
<path d="M148.555 149.185C162.837 165.699 153.424 163.468 118.071 163.468C85.9353 163.468 78.7023 166.446 85.9353 149.185C89.8628 139.812 101.691 142.49 117.312 146.507C135.835 149.185 135.968 139.143 148.555 149.185Z" fill="#C17E7E"/>
<path d="M119.127 156.661C130.939 156.661 141.61 159.102 149.235 163.03C143.457 163.882 133.035 163.468 117.791 163.468C103.454 163.468 94.0736 164.06 88.7231 163.184C96.3662 159.166 107.161 156.661 119.127 156.661Z" fill="#E6A5A5"/>
<path d="M108.808 144.388C111.485 144.999 114.329 145.736 117.312 146.524C122.566 147.304 126.34 147.033 129.339 146.479V151.974C129.339 153.207 128.339 154.205 127.107 154.206H121.305C120.149 154.206 119.199 153.328 119.084 152.203L119.073 151.974C119.073 153.206 118.074 154.205 116.842 154.206H111.039C109.807 154.205 108.808 153.207 108.808 151.974V144.388Z" fill="white"/>
</svg>
