<svg width="188" height="188" viewBox="0 0 188 188" fill="none" xmlns="http://www.w3.org/2000/svg">
<circle cx="94" cy="94" r="94" fill="#98D1E6"/>
<path d="M93.8174 0C94.2918 0 94.7655 0.00376543 95.2383 0.0107422C101.46 29.1466 127.394 50.9998 158.442 51C164.622 51 170.599 50.133 176.258 48.5166C183.739 61.9949 188 77.5005 188 94C188 145.915 145.833 188 93.8174 188C80.0446 188 66.9627 185.048 55.1709 179.746C66.0852 168.197 72.7764 152.629 72.7764 135.5C72.7764 99.8776 43.8429 71 8.15137 71C6.21759 71 4.30366 71.0849 2.41309 71.251C12.6044 30.3278 49.6618 9.08409e-05 93.8174 0ZM8.15137 101.341C27.0535 101.341 42.377 116.634 42.377 135.5C42.377 146.43 37.2327 156.161 29.2295 162.413C12.9038 147.054 2.07524 125.94 0 102.318C2.61257 101.681 5.34214 101.341 8.15137 101.341ZM131.823 7.96875C139.058 11.1572 145.816 15.2272 151.958 20.0439C143.875 18.4966 136.804 14.1127 131.823 7.96875Z" fill="#BFEEFF" fill-opacity="0.5"/>
<path d="M62.3972 111.854L100.967 126.652L80.5694 179.815L66.5661 158.651L42 165.017L62.3972 111.854Z" fill="#FF5D6E"/>
<path d="M127.463 111.854L88.8932 126.652L109.29 179.815L123.294 158.651L147.86 165.017L127.463 111.854Z" fill="#FF5D6E"/>
<path d="M152 84.5C152 116.256 126.256 142 94.5 142C62.7436 142 37 116.256 37 84.5C37 52.7436 62.7436 27 94.5 27C126.256 27 152 52.7436 152 84.5Z" fill="#FFEC6F"/>
<circle cx="94.5" cy="84.4998" r="41.8689" fill="#FFB932"/>
<path d="M85.6262 63.9532C89.5753 56.8716 91.5483 53.3308 94.5 53.3308C97.4517 53.3308 99.4247 56.8716 103.374 63.9532L104.396 65.786C105.518 67.7995 106.079 68.8063 106.952 69.4702C107.825 70.1341 108.916 70.3803 111.098 70.8728L113.08 71.3216C120.747 73.0577 124.578 73.9242 125.491 76.8572C126.402 79.7871 123.79 82.8448 118.563 88.9571L117.21 90.5374C115.726 92.2735 114.981 93.1431 114.648 94.2153C114.314 95.2906 114.426 96.4501 114.651 98.766L114.857 100.876C115.645 109.033 116.041 113.11 113.653 114.921C111.266 116.732 107.675 115.08 100.5 111.776L98.6392 110.922C96.6008 109.981 95.5816 109.513 94.5 109.513C93.4184 109.513 92.3992 109.981 90.3607 110.922L88.5031 111.776C81.3248 115.08 77.7341 116.732 75.3497 114.924C72.959 113.11 73.3549 109.033 74.1435 100.876L74.3492 98.7691C74.5736 96.4501 74.6858 95.2906 74.3492 94.2184C74.0188 93.1431 73.2738 92.2735 71.7902 90.5405L70.4375 88.9571C65.2104 82.8479 62.5984 79.7903 63.5086 76.8572C64.4187 73.9242 68.2556 73.0546 75.9232 71.3216L77.9056 70.8728C80.0843 70.3803 81.1721 70.1341 82.0479 69.4702C82.9238 68.8063 83.4817 67.7995 84.6038 65.786L85.6262 63.9532Z" fill="white"/>
</svg>
