<svg width="597" height="796" viewBox="0 0 597 796" fill="none" xmlns="http://www.w3.org/2000/svg">
<path d="M331.216 757.563L354.084 778.052C360.918 784.175 356.587 795.5 347.411 795.5H249.019C239.844 795.5 235.513 784.175 242.348 778.052L264.216 758.46V696H331.216V757.563Z" fill="#FFF198"/>
<path d="M595.545 363.5C582.59 554.5 470.5 718 301.045 734.5C127 719 11.0622 555.054 0.545217 363.5C-9.97178 171.946 133.151 0 301.045 0C468.94 0 608.5 172.5 595.545 363.5Z" fill="#FFF198"/>
<ellipse cx="98.4089" cy="462.329" rx="56.4084" ry="41.3289" fill="#FFCF55" fill-opacity="0.5"/>
<ellipse cx="498.409" cy="463.329" rx="56.4084" ry="41.3289" fill="#FFCF55" fill-opacity="0.5"/>
<ellipse cx="416.252" cy="333" rx="69.7484" ry="96" fill="white"/>
<ellipse cx="409.703" cy="337.51" rx="54.0304" ry="77.9597" fill="#2E2E2E"/>
<ellipse cx="16.2939" cy="22.2385" rx="16.2939" ry="22.2385" transform="matrix(0.985286 0.170915 -0.176422 0.984315 374.299 270.687)" fill="white"/>
<ellipse cx="180.749" cy="333" rx="69.7484" ry="96" fill="white"/>
<ellipse cx="187.299" cy="337.51" rx="54.0304" ry="77.9597" fill="#2E2E2E"/>
<ellipse cx="16.2939" cy="22.2385" rx="16.2939" ry="22.2385" transform="matrix(0.985286 0.170915 -0.176422 0.984315 150.512 270.687)" fill="white"/>
<path d="M386 464.469C386 499.746 347.496 532 300 532C252.504 532 214 498.505 214 464.469C214 440.861 237.635 423.172 271.226 431.602C289.933 436.297 309.982 436.23 328.623 431.28C360.39 422.843 382.589 438.696 386 464.469Z" fill="#C17E7E"/>
<path d="M299.673 471C330.071 471 356.099 485.58 366.872 506.256C351.103 521.646 327.082 532 300.173 532C272.994 532 248.76 521.032 233 505.271C244.078 485.118 269.76 471 299.673 471Z" fill="#E6A5A5"/>
</svg>
