<svg width="72" height="79" viewBox="0 0 72 79" fill="none" xmlns="http://www.w3.org/2000/svg">
<g id="Group">
<path id="Vector" fill-rule="evenodd" clip-rule="evenodd" d="M63.0163 1.02991C64.0905 0.850755 65.1909 0.907703 66.2409 1.19679C67.2909 1.48588 68.2653 2.00017 69.0965 2.70392C69.9276 3.40767 70.5955 4.28399 71.0538 5.27196C71.512 6.25992 71.7496 7.33584 71.75 8.42491V52.7499C71.7493 56.0518 70.6591 59.2611 68.6485 61.8803C66.638 64.4995 63.8194 66.382 60.6299 67.2361C57.4404 68.0901 54.0582 67.8679 51.0078 66.6039C47.9575 65.3399 45.4094 63.1048 43.7588 60.2451C42.1082 57.3854 41.4473 54.061 41.8785 50.7874C42.3098 47.5138 43.8091 44.474 46.144 42.1393C48.4789 39.8047 51.5189 38.3057 54.7926 37.8748C58.0662 37.4439 61.3905 38.1052 64.25 39.7562V23.4249L26.75 29.6762V56.4999C26.75 56.7249 26.7313 56.9424 26.6938 57.1524C26.963 60.0361 26.2709 62.9278 24.7252 65.3771C23.1796 67.8263 20.8672 69.6956 18.1484 70.6936C15.4295 71.6916 12.457 71.7623 9.69378 70.8947C6.93058 70.0271 4.53195 68.2699 2.8716 65.8969C1.21124 63.5239 0.3824 60.6683 0.514218 57.7751C0.646036 54.8819 1.73111 52.1135 3.60037 49.9013C5.46964 47.6891 8.01812 46.1573 10.8488 45.5446C13.6794 44.9318 16.6332 45.2726 19.25 46.5137V14.6762C19.2498 12.9008 19.8794 11.1829 21.0268 9.82807C22.1743 8.47328 23.7651 7.56946 25.5163 7.27741L63.0163 1.02991ZM26.75 22.0749L64.25 15.8237V8.42491L26.75 14.6762V22.0749Z" fill="white"/>
</g>
</svg>
