<svg width="90" height="90" viewBox="0 0 90 90" fill="none" xmlns="http://www.w3.org/2000/svg">
<g id="Property 1=art">
<path id="Vector" d="M65.625 45C64.1332 45 62.7024 44.4074 61.6475 43.3525C60.5926 42.2976 60 40.8668 60 39.375C60 37.8832 60.5926 36.4524 61.6475 35.3975C62.7024 34.3426 64.1332 33.75 65.625 33.75C67.1168 33.75 68.5476 34.3426 69.6025 35.3975C70.6574 36.4524 71.25 37.8832 71.25 39.375C71.25 40.8668 70.6574 42.2976 69.6025 43.3525C68.5476 44.4074 67.1168 45 65.625 45ZM54.375 30C52.8832 30 51.4524 29.4074 50.3975 28.3525C49.3426 27.2976 48.75 25.8668 48.75 24.375C48.75 22.8832 49.3426 21.4524 50.3975 20.3975C51.4524 19.3426 52.8832 18.75 54.375 18.75C55.8668 18.75 57.2976 19.3426 58.3525 20.3975C59.4074 21.4524 60 22.8832 60 24.375C60 25.8668 59.4074 27.2976 58.3525 28.3525C57.2976 29.4074 55.8668 30 54.375 30ZM35.625 30C34.1332 30 32.7024 29.4074 31.6475 28.3525C30.5926 27.2976 30 25.8668 30 24.375C30 22.8832 30.5926 21.4524 31.6475 20.3975C32.7024 19.3426 34.1332 18.75 35.625 18.75C37.1168 18.75 38.5476 19.3426 39.6025 20.3975C40.6574 21.4524 41.25 22.8832 41.25 24.375C41.25 25.8668 40.6574 27.2976 39.6025 28.3525C38.5476 29.4074 37.1168 30 35.625 30ZM24.375 45C22.8832 45 21.4524 44.4074 20.3975 43.3525C19.3426 42.2976 18.75 40.8668 18.75 39.375C18.75 37.8832 19.3426 36.4524 20.3975 35.3975C21.4524 34.3426 22.8832 33.75 24.375 33.75C25.8668 33.75 27.2976 34.3426 28.3525 35.3975C29.4074 36.4524 30 37.8832 30 39.375C30 40.8668 29.4074 42.2976 28.3525 43.3525C27.2976 44.4074 25.8668 45 24.375 45ZM45 11.25C36.0489 11.25 27.4645 14.8058 21.1351 21.1351C14.8058 27.4645 11.25 36.0489 11.25 45C11.25 53.9511 14.8058 62.5355 21.1351 68.8649C27.4645 75.1942 36.0489 78.75 45 78.75C46.4918 78.75 47.9226 78.1574 48.9775 77.1025C50.0324 76.0476 50.625 74.6168 50.625 73.125C50.625 71.6625 50.0625 70.35 49.1625 69.375C48.3 68.3625 47.7375 67.05 47.7375 65.625C47.7375 64.1332 48.3301 62.7024 49.385 61.6475C50.4399 60.5926 51.8707 60 53.3625 60H60C64.9728 60 69.7419 58.0246 73.2583 54.5083C76.7746 50.9919 78.75 46.2228 78.75 41.25C78.75 24.675 63.6375 11.25 45 11.25Z" fill="white"/>
</g>
</svg>
