<svg width="90" height="90" viewBox="0 0 90 90" fill="none" xmlns="http://www.w3.org/2000/svg">
<g id="Property 1=piano">
<path id="Vector" d="M18.75 78.75C16.6875 78.75 14.9225 78.0163 13.455 76.5488C11.9875 75.0812 11.2525 73.315 11.25 71.25V18.75C11.25 16.6875 11.985 14.9225 13.455 13.455C14.925 11.9875 16.69 11.2525 18.75 11.25H71.25C73.3125 11.25 75.0788 11.985 76.5488 13.455C78.0188 14.925 78.7525 16.69 78.75 18.75V71.25C78.75 73.3125 78.0163 75.0788 76.5488 76.5488C75.0812 78.0188 73.315 78.7525 71.25 78.75H18.75ZM18.75 71.25H30.9375V54.375H30C28.9375 54.375 28.0475 54.015 27.33 53.295C26.6125 52.575 26.2525 51.685 26.25 50.625V18.75H18.75V71.25ZM59.0625 71.25H71.25V18.75H63.75V50.625C63.75 51.6875 63.39 52.5788 62.67 53.2988C61.95 54.0187 61.06 54.3775 60 54.375H59.0625V71.25ZM36.5625 71.25H53.4375V54.375H52.5C51.4375 54.375 50.5475 54.015 49.83 53.295C49.1125 52.575 48.7525 51.685 48.75 50.625V18.75H41.25V50.625C41.25 51.6875 40.89 52.5788 40.17 53.2988C39.45 54.0187 38.56 54.3775 37.5 54.375H36.5625V71.25Z" fill="white"/>
</g>
</svg>
