<svg width="24" height="24" viewBox="0 0 24 24" fill="none" xmlns="http://www.w3.org/2000/svg">
<g clip-path="url(#clip0_196_3224)">
<path d="M12 24C8.8174 24 5.76516 22.7357 3.51472 20.4853C1.26428 18.2348 0 15.1826 0 12C0 8.8174 1.26428 5.76516 3.51472 3.51472C5.76516 1.26428 8.8174 0 12 0C15.1826 0 18.2348 1.26428 20.4853 3.51472C22.7357 5.76516 24 8.8174 24 12C24 15.1826 22.7357 18.2348 20.4853 20.4853C18.2348 22.7357 15.1826 24 12 24ZM12.378 4.602C12.293 4.54848 12.1978 4.51348 12.0984 4.49928C11.999 4.48509 11.8977 4.49202 11.8011 4.51962C11.7046 4.54722 11.615 4.59488 11.5381 4.65948C11.4612 4.72407 11.3988 4.80416 11.355 4.8945L9.555 8.5425L5.529 9.1275C5.39594 9.14581 5.27072 9.2012 5.16767 9.28733C5.06461 9.37347 4.98788 9.48687 4.94625 9.61457C4.90463 9.74227 4.89978 9.8791 4.93228 10.0094C4.96477 10.1397 5.03329 10.2583 5.13 10.3515L8.046 13.1895L7.356 17.2005C7.33386 17.3323 7.34893 17.4677 7.39952 17.5914C7.45011 17.7152 7.53421 17.8223 7.64237 17.9009C7.75053 17.9794 7.87846 18.0263 8.01177 18.0361C8.14508 18.0459 8.27849 18.0183 8.397 17.9565L12 16.0635L15.6 17.955C15.7185 18.0175 15.852 18.0455 15.9856 18.0359C16.1192 18.0264 16.2474 17.9796 16.3557 17.9009C16.4641 17.8222 16.5482 17.7148 16.5987 17.5907C16.6491 17.4667 16.6637 17.331 16.641 17.199L15.954 13.1895L18.867 10.35C18.9621 10.2563 19.0292 10.1381 19.0609 10.0084C19.0925 9.87872 19.0874 9.7428 19.0462 9.61587C19.0049 9.48894 18.9291 9.37601 18.8272 9.28975C18.7254 9.20349 18.6015 9.14731 18.4695 9.1275L14.442 8.5425L12.642 4.8945C12.5836 4.77389 12.492 4.67243 12.378 4.602Z" fill="#FFB932"/>
</g>
<defs>
<clipPath id="clip0_196_3224">
<rect width="24" height="24" fill="white"/>
</clipPath>
</defs>
</svg>
