<svg width="26" height="26" viewBox="0 0 26 26" fill="none" xmlns="http://www.w3.org/2000/svg">
<path fill-rule="evenodd" clip-rule="evenodd" d="M13 22.75C14.2804 22.75 15.5482 22.4978 16.7312 22.0078C17.9141 21.5178 18.9889 20.7997 19.8943 19.8943C20.7997 18.9889 21.5178 17.9141 22.0078 16.7312C22.4978 15.5482 22.75 14.2804 22.75 13C22.75 11.7196 22.4978 10.4518 22.0078 9.26884C21.5178 8.08591 20.7997 7.01108 19.8943 6.10571C18.9889 5.20034 17.9141 4.48216 16.7312 3.99217C15.5482 3.50219 14.2804 3.25 13 3.25C10.4141 3.25 7.93419 4.27723 6.10571 6.10571C4.27723 7.93419 3.25 10.4141 3.25 13C3.25 15.5859 4.27723 18.0658 6.10571 19.8943C7.93419 21.7228 10.4141 22.75 13 22.75ZM12.7487 16.9433L18.1653 10.4433L16.5013 9.05667L11.843 14.6456L9.43258 12.2341L7.90075 13.7659L11.1508 17.0159L11.9893 17.8544L12.7487 16.9433Z" fill="#7CBC36"/>
</svg>
