<svg width="237" height="237" viewBox="0 0 237 237" fill="none" xmlns="http://www.w3.org/2000/svg">
<circle cx="118.469" cy="118.277" r="118.277" fill="#74E8FF"/>
<ellipse cx="38.5091" cy="148.161" rx="21.3562" ry="15.6324" fill="#74BEFF" fill-opacity="0.52"/>
<ellipse cx="189.949" cy="148.539" rx="21.3562" ry="15.6324" fill="#74BEFF" fill-opacity="0.52"/>
<path d="M78.9556 135.86C78.9556 141.16 75.8186 145.056 71.5003 145.056C67.182 145.056 64.2268 140.76 64.2268 135.46C65.0515 131.462 67.2335 128.663 71.5003 125.864C75.598 128.463 78.5074 131.862 78.9556 135.86Z" fill="white"/>
<ellipse cx="73.9097" cy="99.2435" rx="26.4068" ry="36.3113" fill="white"/>
<ellipse cx="76.389" cy="100.949" rx="20.4559" ry="29.4877" fill="#2E2E2E"/>
<ellipse cx="11.5904" cy="15.3777" rx="11.5904" ry="15.3777" transform="matrix(0.985313 0.170759 -0.176583 0.984286 62.4614 75.6738)" fill="white"/>
<ellipse cx="6.46129" cy="10.5135" rx="6.46129" ry="10.5135" transform="matrix(0.939334 0.343004 -0.348554 0.937289 82.6665 101.268)" fill="white"/>
<path d="M172.684 135.86C172.684 141.16 169.547 145.056 165.229 145.056C160.91 145.056 157.955 140.76 157.955 135.46C158.78 131.462 160.962 128.663 165.229 125.864C169.327 128.463 172.236 131.862 172.684 135.86Z" fill="white"/>
<ellipse cx="163.071" cy="99.2435" rx="26.4068" ry="36.3113" fill="white"/>
<ellipse cx="160.591" cy="100.949" rx="20.4559" ry="29.4877" fill="#2E2E2E"/>
<ellipse cx="11.5904" cy="15.3777" rx="11.5904" ry="15.3777" transform="matrix(0.985313 0.170759 -0.176583 0.984286 146.872 75.8757)" fill="white"/>
<ellipse cx="6.46129" cy="10.5135" rx="6.46129" ry="10.5135" transform="matrix(0.939334 0.343004 -0.348554 0.937289 167.07 101.316)" fill="white"/>
<path d="M96.5991 178.977C114.533 146.644 133.231 165.505 140.339 178.977" stroke="#424242" stroke-width="2.67797" stroke-linecap="round"/>
</svg>
