<svg width="26" height="26" viewBox="0 0 26 26" fill="none" xmlns="http://www.w3.org/2000/svg">
<g id="icon">
<path id="Vector" d="M1.68849 3.22155C1.35781 2.19373 2.42787 1.27561 3.39393 1.75823L23.7016 11.9104C24.6002 12.3597 24.6002 13.641 23.7016 14.0912L3.39393 24.2434C2.42868 24.726 1.35781 23.8079 1.68849 22.78L4.83449 13.0008L1.68849 3.22155ZM6.27912 13.8133L3.53206 22.3575L22.2496 13.0008L3.53124 3.64405L6.28074 12.1875H15.4376C15.6531 12.1875 15.8598 12.2731 16.0121 12.4255C16.1645 12.5778 16.2501 12.7845 16.2501 13C16.2501 13.2155 16.1645 13.4221 16.0121 13.5745C15.8598 13.7269 15.6531 13.8125 15.4376 13.8125L6.27912 13.8133Z" fill="#FFB932"/>
</g>
</svg>
