<svg width="45" height="45" viewBox="0 0 45 45" fill="none" xmlns="http://www.w3.org/2000/svg">
<circle cx="22.5" cy="22.5" r="22.5" fill="#AC92ED"/>
<g clip-path="url(#clip0_195_3247)">
<path d="M24.3806 5.0564C24.8934 5.0564 25.3522 5.37562 25.5249 5.85358L26.7564 9.26733C27.1972 9.37665 27.5774 9.48829 27.8972 9.60226C28.2461 9.72669 28.6997 9.91857 29.2579 10.1779L32.1256 8.66029C32.3596 8.53571 32.6277 8.49062 32.8895 8.53185C33.1513 8.57307 33.3926 8.69836 33.577 8.8888L36.0993 11.4967C36.4343 11.8438 36.5284 12.3514 36.3401 12.7945L34.9951 15.9466C35.2173 16.3559 35.3963 16.7071 35.5324 17.0002C35.6789 17.3177 35.8604 17.7596 36.0767 18.3259L39.2113 19.6691C39.6823 19.8697 39.9736 20.3407 39.9422 20.8448L39.7119 24.4644C39.6962 24.6995 39.6118 24.9249 39.4691 25.1125C39.3265 25.3001 39.1319 25.4417 38.9095 25.5197L35.9406 26.5751C35.8557 26.9844 35.7662 27.3368 35.672 27.6322C35.5195 28.09 35.3461 28.5405 35.1521 28.9823L36.6436 32.2792C36.7497 32.5107 36.7785 32.7702 36.7257 33.0193C36.6729 33.2684 36.5414 33.4939 36.3505 33.6625L33.5142 36.1954C33.3277 36.3621 33.0946 36.4676 32.8462 36.4976C32.5979 36.5275 32.3464 36.4805 32.1256 36.3628L29.202 34.8138C28.7451 35.0569 28.2732 35.2708 27.7891 35.454L26.5122 35.932L25.3784 39.0718C25.2935 39.3013 25.1417 39.4999 24.9427 39.642C24.7436 39.7842 24.5065 39.8633 24.262 39.869L20.9476 39.944C20.6965 39.9499 20.4497 39.8781 20.2409 39.7386C20.0321 39.599 19.8713 39.3985 19.7806 39.1643L18.4444 35.6284C17.9887 35.4723 17.5373 35.3036 17.0908 35.1226C16.7257 34.9645 16.3662 34.7941 16.0128 34.6115L12.6984 36.0279C12.4801 36.1215 12.2393 36.1494 12.0054 36.1082C11.7714 36.067 11.5546 35.9585 11.3814 35.7959L8.92883 33.4951C8.74555 33.3249 8.62072 33.1013 8.57216 32.856C8.5236 32.6107 8.5538 32.3563 8.65845 32.1292L10.0836 29.0242C9.89475 28.6561 9.71903 28.2814 9.55681 27.9008C9.36785 27.4348 9.19333 26.963 9.0335 26.4861L5.91105 25.5354C5.65725 25.4587 5.43587 25.3004 5.28131 25.0849C5.12675 24.8695 5.04766 24.609 5.05631 24.344L5.17841 20.9931C5.18748 20.7745 5.25594 20.5626 5.37641 20.38C5.49689 20.1975 5.66484 20.0512 5.86221 19.9569L9.13816 18.3835C9.28934 17.8276 9.42307 17.3927 9.53937 17.0787C9.70395 16.657 9.8867 16.2426 10.0871 15.8367L8.66718 12.8363C8.5586 12.6087 8.52543 12.3523 8.57248 12.1045C8.61954 11.8567 8.74436 11.6303 8.92883 11.4583L11.3779 9.14523C11.5494 8.98292 11.7642 8.87379 11.9964 8.83107C12.2286 8.78835 12.4682 8.81385 12.6862 8.9045L15.9971 10.2721C16.3622 10.029 16.6948 9.82903 16.9949 9.67203C17.3519 9.48364 17.831 9.28245 18.4322 9.06848L19.5835 5.85707C19.6695 5.62261 19.8253 5.42015 20.0299 5.27698C20.2345 5.13381 20.4781 5.05683 20.7278 5.0564H24.3806ZM22.542 17.3002C19.6341 17.3002 17.2774 19.629 17.2774 22.5037C17.2774 25.3784 19.6341 27.7089 22.542 27.7089C25.4499 27.7089 27.8048 25.3784 27.8048 22.5037C27.8048 19.629 25.4499 17.3002 22.542 17.3002Z" fill="white"/>
</g>
<defs>
<clipPath id="clip0_195_3247">
<rect width="34.8876" height="34.8876" fill="white" transform="translate(5.0564 5.0564)"/>
</clipPath>
</defs>
</svg>
