<svg width="28" height="28" viewBox="0 0 28 28" fill="none" xmlns="http://www.w3.org/2000/svg">
<path fill-rule="evenodd" clip-rule="evenodd" d="M11.3333 0C12.2222 0 13.1111 0.337778 14 1.01333C14.8888 0.337778 15.7777 0 16.6666 0H24.6666C25.3739 0 26.0521 0.280951 26.5522 0.781048C27.0523 1.28115 27.3333 1.95942 27.3333 2.66667V20C27.3333 20.7072 27.0523 21.3855 26.5522 21.8856C26.0521 22.3857 25.3739 22.6667 24.6666 22.6667H15.3333C15.3333 23.4027 14.7333 24 14 24C13.2666 24 12.6666 23.4 12.6666 22.6667H3.33329C2.62605 22.6667 1.94777 22.3857 1.44767 21.8856C0.947577 21.3855 0.666626 20.7072 0.666626 20V2.66667C0.666626 1.95942 0.947577 1.28115 1.44767 0.781048C1.94777 0.280951 2.62605 0 3.33329 0H11.3333ZM11.3333 2.66667H3.33329V20H12.6666V4C12.6666 3.26667 12.0666 2.66667 11.3333 2.66667ZM24.6666 2.66667H16.6666C15.9333 2.66667 15.3333 3.26667 15.3333 4V20H24.6666V2.66667Z" fill="#4CA0FF"/>
</svg>
