<svg width="238" height="237" viewBox="0 0 238 237" fill="none" xmlns="http://www.w3.org/2000/svg">
<path d="M237.525 118.723C237.525 184.046 184.571 237 119.249 237C53.926 237 0.97168 184.046 0.97168 118.723C0.97168 53.4006 53.926 0.446289 119.249 0.446289C184.571 0.446289 237.525 53.4006 237.525 118.723Z" fill="#B39DDB"/>
<ellipse cx="74.6892" cy="104.599" rx="26.4068" ry="36.3113" fill="white"/>
<ellipse cx="80.6414" cy="106.226" rx="9.14972" ry="13.8362" fill="#2E2E2E"/>
<ellipse cx="1.3709" cy="1.8694" rx="1.3709" ry="1.8694" transform="matrix(0.985313 0.170759 -0.176583 0.984286 75.2764 97.2993)" fill="white"/>
<ellipse cx="26.4068" cy="36.3113" rx="26.4068" ry="36.3113" transform="matrix(-1 0 0 1 190.362 68.2881)" fill="white"/>
<ellipse cx="9.14972" cy="13.8362" rx="9.14972" ry="13.8362" transform="matrix(-1 0 0 1 167.153 92.3896)" fill="#2E2E2E"/>
<ellipse cx="1.3709" cy="1.8694" rx="1.3709" ry="1.8694" transform="matrix(-0.970375 -0.241603 -0.235859 0.971787 154.837 98.3345)" fill="white"/>
<ellipse cx="43.3055" cy="147.745" rx="21.3562" ry="15.6324" fill="#775AAA" fill-opacity="0.49"/>
<ellipse cx="194.746" cy="148.124" rx="21.3562" ry="15.6324" fill="#775AAA" fill-opacity="0.49"/>
<ellipse cx="119.248" cy="171.39" rx="21.8701" ry="38.3842" fill="#C17E7E"/>
<path d="M119.131 184.333C126.785 184.333 133.238 190.019 135.231 197.782C131.246 205.167 125.607 209.774 119.354 209.774C112.945 209.774 107.181 204.936 103.181 197.228C105.333 189.75 111.66 184.333 119.131 184.333Z" fill="#E6A5A5"/>
</svg>
