<svg width="188" height="188" viewBox="0 0 188 188" fill="none" xmlns="http://www.w3.org/2000/svg">
<circle cx="94" cy="94" r="94" fill="#98D1E6"/>
<path d="M93.8174 0C94.2918 0 94.7655 0.00376543 95.2383 0.0107422C101.46 29.1466 127.394 50.9998 158.442 51C164.622 51 170.599 50.133 176.258 48.5166C183.739 61.9949 188 77.5005 188 94C188 145.915 145.833 188 93.8174 188C80.0446 188 66.9627 185.048 55.1709 179.746C66.0852 168.197 72.7764 152.629 72.7764 135.5C72.7764 99.8776 43.8429 71 8.15137 71C6.21759 71 4.30366 71.0849 2.41309 71.251C12.6044 30.3278 49.6618 9.08409e-05 93.8174 0ZM8.15137 101.341C27.0535 101.341 42.377 116.634 42.377 135.5C42.377 146.43 37.2327 156.161 29.2295 162.413C12.9038 147.054 2.07524 125.94 0 102.318C2.61257 101.681 5.34214 101.341 8.15137 101.341ZM131.823 7.96875C139.058 11.1572 145.816 15.2272 151.958 20.0439C143.875 18.4966 136.804 14.1127 131.823 7.96875Z" fill="#BFEEFF" fill-opacity="0.5"/>
<path d="M62.3972 111.854L100.967 126.652L80.5694 179.815L66.5661 158.651L42 165.017L62.3972 111.854Z" fill="#FF5D6E"/>
<path d="M127.463 111.854L88.8932 126.652L109.29 179.815L123.294 158.651L147.86 165.017L127.463 111.854Z" fill="#FF5D6E"/>
<path d="M152 84.4999C152 116.256 126.256 142 94.5 142C62.7436 142 37 116.256 37 84.4999C37 52.7435 62.7436 26.9999 94.5 26.9999C126.256 26.9999 152 52.7435 152 84.4999Z" fill="#FFEC6F"/>
<circle cx="94.5" cy="84.4997" r="41.8689" fill="#FFB932"/>
<path d="M85.6261 63.9529C89.5752 56.8713 91.5482 53.3304 94.4999 53.3304C97.4516 53.3304 99.4246 56.8713 103.374 63.9529L104.396 65.7856C105.518 67.7991 106.079 68.8059 106.952 69.4698C107.825 70.1337 108.916 70.3799 111.097 70.8724L113.08 71.3212C120.747 73.0574 124.578 73.9239 125.491 76.8569C126.401 79.7868 123.789 82.8445 118.562 88.9567L117.21 90.537C115.726 92.2731 114.981 93.1427 114.648 94.2149C114.314 95.2903 114.426 96.4498 114.651 98.7656L114.856 100.876C115.645 109.033 116.041 113.11 113.653 114.921C111.266 116.732 107.675 115.08 100.5 111.776L98.6392 110.922C96.6007 109.98 95.5815 109.513 94.4999 109.513C93.4183 109.513 92.3991 109.98 90.3606 110.922L88.503 111.776C81.3247 115.08 77.734 116.731 75.3496 114.924C72.9589 113.11 73.3548 109.033 74.1434 100.876L74.3491 98.7687C74.5735 96.4498 74.6857 95.2903 74.3491 94.2181C74.0187 93.1427 73.2738 92.2731 71.7901 90.5401L70.4374 88.9567C65.2103 82.8476 62.5983 79.7899 63.5085 76.8569C64.4186 73.9239 68.2555 73.0542 75.9231 71.3212L77.9055 70.8724C80.0842 70.3799 81.172 70.1337 82.0479 69.4698C82.9237 68.8059 83.4816 67.7991 84.6037 65.7856L85.6261 63.9529Z" fill="white"/>
</svg>
